<svg xmlns="http://www.w3.org/2000/svg" width="310" height="75">
  <style>
      path { fill: #222; }
      circle { fill: hsl(120, 49%, 47%); }
      @media (prefers-color-scheme: dark) {
          path { fill: #DDD; }
          circle { fill: hsl(120, 61%, 33%); }
      }
  </style>
  <path d="M31 0 21 1a31 31 0 0 0-11 5 20 20 0 0 0-9 17 16 16 0 0 0 10 15l6 2 9 3a120 120 0 0 1 12 3l2 1 2 5a6 6 0 0 1-2 5l-2 1h-2l-7 1a39 39 0 0 1-18-4c-2 0-4-2-5-3L0 64l7 4 5 2a57 57 0 0 0 27 1 30 30 0 0 0 11-4l5-5a19 19 0 0 0 3-12v-4l-2-4a18 18 0 0 0-7-7l-7-3a140 140 0 0 0-18-4 20 20 0 0 1-4-3 5 5 0 0 1-2-4 7 7 0 0 1 3-6 14 14 0 0 1 4-1 22 22 0 0 1 6-1 33 33 0 0 1 9 1 38 38 0 0 1 10 5l5-13a34 34 0 0 0-11-4L31 0zm38 1v70h16V54l10-10 22 27h19l-31-39 29-31h-18L85 34V1H69zm74 0v70h17V52h14s0 0 0 0l14 19h17l-15-22s0 0 0 0l2-1a23 23 0 0 0 11-15 28 28 0 0 0-3-20l-4-5-6-4c-5-2-10-3-16-3h-31zm74 0v70h16V29l35 42h13V1h-16v43L230 1h-13zm-57 13h13a29 29 0 0 1 7 1l4 3c1 1 3 3 3 5a15 15 0 0 1 0 6c0 2-1 5-3 7l-7 3h-17V14z" />
  <circle cx="300" cy="62" r="8" />
</svg>